<?xml version="1.0" standalone="no"?>
<!DOCTYPE svg PUBLIC "-//W3C//DTD SVG 1.1//EN" "http://www.w3.org/Graphics/SVG/1.1/DTD/svg11.dtd" >
<svg xmlns="http://www.w3.org/2000/svg" xmlns:xlink="http://www.w3.org/1999/xlink" version="1.1">
<metadata></metadata>
<defs>
<font id="adlibregular" horiz-adv-x="578" >
<font-face units-per-em="1000" ascent="800" descent="-200" />
<missing-glyph horiz-adv-x="222" />
<glyph unicode=" "  horiz-adv-x="222" />
<glyph unicode="&#x09;" horiz-adv-x="222" />
<glyph unicode="&#xa0;" horiz-adv-x="222" />
<glyph unicode="!" horiz-adv-x="259" d="M178 254q-21 -3 -46 -8.5t-71 -18.5q0 39 2.5 99t2.5 69q0 56 -7 168t-7 168l171 -14q0 -121 -10.5 -236.5t-34.5 -226.5zM134 2q-39 0 -65 18q-30 21 -30 58t26 63t63 26q40 0 65.5 -21.5t25.5 -61.5q0 -82 -85 -82z" />
<glyph unicode="&#x22;" horiz-adv-x="356" d="M291 414l-12 -1h-36t-36 1l2 90q0 98 -9 194h116q0 -60 -8.5 -136.5t-16.5 -147.5zM128 415l-20 -1l-66 2q0 15 2 45t2 45q0 31 -5.5 101.5t-5.5 91.5l118 1q-15 -119 -20 -177t-5 -108z" />
<glyph unicode="#" horiz-adv-x="595" d="M560 511h-143l-30 -121h140l-9 -42h-141l-33 -138h-42l33 138h-123l-32 -138h-42l33 138h-137l7 42h140l31 121h-140l11 38h136l36 151h42l-36 -151h122l37 151h42l-35 -151h140zM252 511l-29 -121h122l30 121h-123z" />
<glyph unicode="$" horiz-adv-x="600" d="M342 85l-2 -94h-109v98q-75 0 -132 43q-64 48 -64 120h142l-1 -13q0 -24 17 -32t43 -8l-1 94q-103 19 -144 54q-53 45 -53 143q0 94 57 129q39 24 143 34v51h104v-55q82 0 133 -36q58 -41 58 -117l-131 -12l-2 49q-30 20 -72 20v-115q104 0 166 -34q81 -44 81 -140 q0 -95 -85 -146q-62 -37 -128 -37q-16 0 -20 4zM242 555l-32 2q-10 0 -16.5 -1t-28.5 -7l-2 -111l79 4v113zM418 282l-86 6v-105h86v99z" />
<glyph unicode="%" horiz-adv-x="735" d="M542 2q-71 0 -111 45t-40 118q0 74 48.5 126.5t122.5 52.5q62 0 106 -40t44 -101q0 -95 -36 -144q-42 -57 -134 -57zM132 -13l-73 39q33 38 149 176q141 168 221 268q113 142 112 155l-6 9l-9 3q-12 -5 -64 -31q-22 -11 -50 -11q-15 0 -55 5l2 -57q0 -71 -53 -123 t-125 -52q-68 0 -108 60q-36 53 -36 124q0 70 46.5 113.5t117.5 43.5q36 0 71.5 -17t56.5 -46q31 -4 42 -4.5t24 -0.5q50 0 102.5 21t87.5 56l86 -29q-89 -107 -186 -228q-110 -138 -181 -233q-85 -114 -172 -241zM148 634l-1 -155l118 -6l4 153zM491 236l-2 -131l124 -9 l12 131z" />
<glyph unicode="&#x26;" horiz-adv-x="627" d="M436 4l-40 45q-65 -51 -147 -51q-96 0 -159 51q-68 55 -68 150q0 75 40 118q27 29 106 71q-36 40 -72 81q-14 26 -14 72q0 79 63 121q54 36 137 36q77 0 136 -40q68 -46 68 -119q0 -74 -41 -114q-51 -31 -101 -61l99 -112q9 5 11.5 24.5t2.5 49.5v28l124 -4v-23 q0 -49 -14 -89q-17 -49 -52 -73l98 -139q-43 0 -86 -5.5t-91 -16.5zM359 598l-128 2l-2 -141l130 4v135zM257 300l-59 -14l2 -158l184 2z" />
<glyph unicode="'" horiz-adv-x="264" d="M74 369l-22 3v60h86q5 12 7.5 21t2.5 16q0 26 -13 42q-45 0 -73 18q-34 22 -34 65l2 3q0 42 28.5 71.5t70.5 29.5q59 0 86 -43q22 -35 22 -99q0 -90 -35 -135q-40 -52 -128 -52z" />
<glyph unicode="(" horiz-adv-x="255" d="M168 -170q-56 112 -88 225q-37 129 -37 239q0 96 36 213t89 206l35 -16q-26 -102 -52 -213t-26 -199q0 -69 11 -140t31 -156q9 -37 38 -145z" />
<glyph unicode=")" horiz-adv-x="235" d="M88 -156l-37 15q17 77 29 137q17 83 25.5 150t8.5 130q0 102 -36 266q-18 78 -35 157l38 19q56 -99 86 -209t30 -223q0 -103 -32 -226q-28 -109 -77 -216z" />
<glyph unicode="*" horiz-adv-x="373" d="M204 545l139 -60l-36 -50l-110 97l18 -154l-61 -2l32 158l-118 -97l-37 44l148 55l-138 41l19 68l120 -99l-20 162l57 3l-18 -159l104 93l45 -46z" />
<glyph unicode="+" horiz-adv-x="618" d="M338 264v-233h-56v233h-233v65h231v231l60 2v-235h233v-63h-235z" />
<glyph unicode="," horiz-adv-x="287" d="M61 -138v67l95 4q3 12 4.5 23t1.5 21q0 9 -2 20.5t-4 21.5q-17 -3 -33 -6q-36 0 -64.5 26.5t-28.5 63.5q0 38 28.5 69t66.5 31q63 0 96 -40t33 -105q0 -111 -31.5 -149.5t-138.5 -48.5z" />
<glyph unicode="-" horiz-adv-x="283" d="M28 243v120l222 -9v-120z" />
<glyph unicode="." horiz-adv-x="279" d="M143 2q-51 0 -83 28t-32 78q0 45 31.5 69t78.5 24q41 0 73.5 -29.5t32.5 -70.5q0 -45 -28 -72t-73 -27z" />
<glyph unicode="/" horiz-adv-x="410" d="M89 -17l-55 22q155 357 287 713l60 -21q-51 -114 -102 -236q-28 -66 -96 -238q-56 -141 -94 -240z" />
<glyph unicode="0" horiz-adv-x="593" d="M303 -12q-161 0 -225 104q-50 82 -50 254q0 148 58 253q71 129 208 129q146 0 214 -111q56 -91 56 -247q0 -125 -12 -187q-18 -93 -70 -140q-61 -55 -179 -55zM384 555l-164 9l-32 -422l196 4v409z" />
<glyph unicode="1" horiz-adv-x="381" d="M296 8q-46 0 -99.5 2t-88.5 4q14 154 21.5 289t7.5 271l-101 2l4 101q67 0 136.5 8t138.5 22q-12 -98 -16.5 -197t-4.5 -220q0 -47 1 -141t1 -141z" />
<glyph unicode="2" horiz-adv-x="555" d="M203 220q-3 -10 -7 -22t-3 -15l3 -34l328 13l-5 -162q-38 0 -128.5 5.5t-117.5 5.5q-48 0 -88 -2q-138 -7 -149 -7q0 242 41 293q36 45 274 114l-4 190h-143l1 -146l-173 -4v68q0 86 82 143q73 51 162 51q109 0 176 -51q75 -57 75 -163q0 -115 -62 -167 q-38 -32 -134.5 -57t-127.5 -53z" />
<glyph unicode="3" horiz-adv-x="591" d="M284 -16q-106 0 -171 40q-79 49 -79 149l3 39h190l-10 -117h154l-7 184l-148 8v126h124l15 163l-153 19v-130l-169 15l-1 11q0 115 72 175.5t189 60.5q96 0 163 -51q74 -56 74 -150q0 -70 -33 -106q-45 -29 -89 -58q54 -31 108 -61q46 -35 46 -114q0 -102 -92 -157 q-77 -46 -186 -46z" />
<glyph unicode="4" horiz-adv-x="631" d="M608 170l-109 4v-192h-203l8 186h-282l1 136q76 122 144 222.5t152 213.5l176 -21v-420h117zM357 605q-52 -61 -98 -132t-85 -148h183v280z" />
<glyph unicode="5" horiz-adv-x="582" d="M307 -14q-110 0 -183 52q-83 59 -83 165l186 3l-4 -113l155 6v218l-189 8l-11 -44l-127 6l23 430q40 -4 107 -6t115 -2h24h21h19h17h14h13h11h34t34 1h10l-14 -144l-306 5l-2 -139l13 -20q34 17 69 35q34 14 77 14q100 0 166 -62t66 -162q0 -101 -77 -176t-178 -75z" />
<glyph unicode="6" horiz-adv-x="601" d="M307 -10q-160 0 -224 104q-51 83 -51 254q0 160 54 255q69 121 216 121q104 0 159 -40q64 -47 64 -147l-2 -37q-29 0 -59.5 -0.5t-57.5 -4.5v87l-188 5v-161q0 -19 12 -30q2 1 63 31q34 17 69 17q95 0 152 -56t57 -151q0 -113 -75 -180t-189 -67zM185 304v-183l186 -8 l9 191h-195z" />
<glyph unicode="7" horiz-adv-x="511" d="M273 0l-212 -4l134 332q53 111 107 223l-6 11q-5 3 -39 4t-43 1q-56 0 -106 -2t-78 -5l13 161l443 -23v-17v-14v-13v-11q0 -20 -1 -40t-4 -39l-50 -100q-54 -108 -93.5 -224.5t-64.5 -239.5z" />
<glyph unicode="8" horiz-adv-x="620" d="M315 -16q-110 0 -187 38q-100 49 -100 148q0 76 38 123q47 39 95 79q-7 10 -74 61q-36 27 -36 104q0 100 84 149q69 40 176 40q100 0 170 -40q87 -50 87 -142q0 -75 -40 -118q-47 -36 -94 -71q89 -35 112 -55q40 -35 40 -116q0 -102 -88 -155q-75 -45 -183 -45zM387 589 l-155 8l8 -168h147v160zM393 304l-191 4l3 -188l188 6v178z" />
<glyph unicode="9" horiz-adv-x="609" d="M280 -14q-109 0 -171 46q-71 52 -71 157l2 32q27 0 81.5 -3.5t74.5 -3.5v-90h170l2 157q0 8 -4 14q-10 -3 -42 -15q-46 -17 -75 -17q-101 0 -159 60t-58 161q0 115 73.5 180t190.5 65q151 0 221 -88q63 -80 63 -235q0 -125 -19 -202q-26 -103 -86 -156q-71 -62 -193 -62z M403 593l-185 6v-203l185 -11v208z" />
<glyph unicode=":" horiz-adv-x="274" d="M141 283q-49 0 -81 29t-32 77q0 44 31.5 67t78.5 23q41 0 72.5 -29.5t31.5 -70.5q0 -45 -27.5 -70.5t-73.5 -25.5zM141 0q-49 0 -82 28.5t-33 76.5q0 46 31 69t78 23q42 0 74.5 -29.5t32.5 -70.5q0 -47 -27 -72t-74 -25z" />
<glyph unicode=";" horiz-adv-x="290" d="M145 274q-52 0 -82.5 29.5t-30.5 80.5q0 39 32 66t72 27q47 0 80 -28t33 -74q0 -47 -29 -74t-75 -27zM91 -136l-27 1v70l99 1q6 9 9 21.5t3 23.5q0 21 -11 38h-4q-4 0 -14 -3t-15 -3q-36 0 -68.5 28.5t-32.5 63.5q0 41 29.5 71.5t69.5 30.5q62 0 96 -40t34 -104 q0 -104 -31 -147q-37 -52 -137 -52z" />
<glyph unicode="&#x3c;" horiz-adv-x="614" d="M49 271v53l510 231v-65l-433 -192l435 -204v-64z" />
<glyph unicode="=" horiz-adv-x="631" d="M50 373v56h531v-56h-531zM50 174v56h531v-56h-531z" />
<glyph unicode="&#x3e;" horiz-adv-x="605" d="M54 32v64l433 204l-431 192v65l512 -231v-53z" />
<glyph unicode="?" horiz-adv-x="565" d="M324 313l4 -76h-155v178h193v180h-168v-100h-168l-2 8q0 108 65 165t174 57q96 0 174 -41q96 -50 96 -137q0 -95 -38 -161q-46 -79 -129 -79q-22 0 -46 6zM249 -4q-44 0 -75 28t-31 73q0 32 28.5 58t61.5 26q46 0 81 -21q41 -25 41 -69q0 -45 -30 -70t-76 -25z" />
<glyph unicode="@" horiz-adv-x="824" d="M521 151q-46 0 -68 39q-24 -22 -50.5 -34.5t-57.5 -12.5q-61 0 -93.5 44t-32.5 107q0 92 62 177q68 93 156 93q34 0 63 -17t47 -46l14 46l61 1q-38 -104 -61 -170q-44 -127 -44 -162l22 -19q62 0 112 76q45 69 45 136q0 103 -79 179t-182 76q-125 0 -210.5 -92.5 t-85.5 -219.5q0 -121 83 -212.5t203 -91.5q84 0 142.5 29t109.5 97h52q-50 -85 -126 -127.5t-177 -42.5q-142 0 -241.5 104.5t-99.5 247.5t101.5 246.5t245.5 103.5q117 0 215 -87q102 -91 102 -207q0 -102 -62 -179q-66 -82 -166 -82zM437 513q-62 0 -112 -81 q-44 -72 -44 -140q0 -38 21 -65.5t59 -27.5q56 0 106 90q45 81 45 144q0 32 -21 56t-54 24z" />
<glyph unicode="A" horiz-adv-x="668" d="M435 9l-48 153h-169l-33 -154l-170 -1l223 691h219l202 -689h-224zM324 580l-79 -288h152z" />
<glyph unicode="B" horiz-adv-x="683" d="M39 17q0 123 2 232t5 244t3 207q55 0 165 3t164 3q100 0 162 -29q86 -40 86 -128q0 -87 -71 -135q-23 -16 -89 -47q123 -35 163 -83q35 -42 35 -109q0 -74 -57.5 -126.5t-132.5 -52.5q-66 0 -141.5 5t-158.5 10.5t-135 5.5zM202 604l-4 -195l204 10l11 181zM455 302 l-199 1l4 -204l198 18z" />
<glyph unicode="C" horiz-adv-x="729" d="M374 -12q-157 0 -251 108q-90 103 -90 263q0 155 92 258q96 108 250 108q147 0 230 -67q92 -74 92 -218l-214 2l-8 142h-206v-427h243l5 126l185 -13q0 -132 -99 -210q-91 -72 -229 -72z" />
<glyph unicode="D" horiz-adv-x="693" d="M331 7q-60 0 -108 2q-168 7 -181 7q0 62 2 113q7 177 7 191q0 61 -7 184t-7 185q70 0 113 1q173 4 190 4q152 0 243.5 -90.5t91.5 -242.5q0 -164 -91 -259t-253 -95zM451 529l-215 15v-389l215 4v370z" />
<glyph unicode="E" horiz-adv-x="647" d="M39 6q0 95 2 172q7 268 7 289q0 36 -8 109t-8 110l543 14l6 -118l-320 -2l8 -148h272v-134q-40 0 -111 3.5t-92 3.5q-30 0 -55 -2q-86 -7 -93 -7v-119h431v-176q-135 0 -218 1q-331 4 -364 4z" />
<glyph unicode="F" horiz-adv-x="585" d="M194 589v-189l332 5v-139h-276v-262l-215 9v693q96 0 179.5 3t193.5 7.5t154 4.5v-136z" />
<glyph unicode="G" horiz-adv-x="725" d="M696 31l-131 -7l-22 54q-51 -54 -81 -70q-38 -20 -105 -20q-161 0 -246 108q-78 99 -78 263q0 169 83 267q89 105 255 105q139 0 224 -64q95 -72 95 -208l-217 -2v113l-223 4l8 -428h246l6 102h-126v121l317 -11z" />
<glyph unicode="H" horiz-adv-x="668" d="M638 36l-178 -13v267h-202l-12 -290l-206 3q0 60 2 109q7 170 7 182q0 62 -4 152q-9 204 -9 254l175 8l-9 -283h235v261l203 9z" />
<glyph unicode="I" horiz-adv-x="312" d="M64 9l2 194q0 79 -3 184q-7 246 -7 308h194q0 -49 -3.5 -136.5t-3.5 -113.5q0 -90 2 -162q7 -252 7 -270z" />
<glyph unicode="J" horiz-adv-x="530" d="M231 -12q-95 0 -151 49.5t-56 143.5v104h172l-2 -166h102v216q0 62 -3 146q-7 195 -7 244l205 -4l-3 -526q0 -104 -79 -159q-69 -48 -178 -48z" />
<glyph unicode="K" horiz-adv-x="748" d="M490 11l-140 297l-129 -130l2 -154l-171 -7q0 47 2 91q6 133 6 152q0 65 -4 160q-9 214 -9 267l203 2l14 -279l247 279h213l-218 -266l232 -412h-248z" />
<glyph unicode="L" horiz-adv-x="549" d="M524 2l-487 13l2 678l207 9v-549l283 6z" />
<glyph unicode="M" horiz-adv-x="806" d="M613 11q0 59 1 133t2 140q0 107 -2.5 163.5t-9.5 63.5q-9 -5 -38 -121q-19 -77 -52 -223q-17 -74 -33 -148h-171q-16 72 -31 144q-26 122 -47 200q-27 104 -42 117q-6 -7 -9 -60.5t-3 -121.5q0 -84 1.5 -160t3.5 -134h-153l30 685h257l107 -480l100 482l241 -4l11 -676 h-163z" />
<glyph unicode="N" horiz-adv-x="691" d="M463 13q-31 47 -61 94q-74 113 -90 138q-47 71 -53 76l11 -20q4 -4 4.5 -5t0.5 -2q-3 0 -4 5.5t-1 10.5l-13 33q-10 24 -19 49q-19 44 -43 79l-8 3l-14 -15v-451l-143 1l7 686l211 -2q31 -50 89 -147q27 -45 86.5 -147t87.5 -149l8 -3l10 17l-15 417l145 -8v-664z" />
<glyph unicode="O" horiz-adv-x="731" d="M404 -9q-174 0 -273 104t-99 280q0 166 86 255t252 89q156 0 247 -93t91 -249q0 -155 -72 -262q-84 -124 -232 -124zM240 555l14 -414l241 -4l13 403z" />
<glyph unicode="P" horiz-adv-x="633" d="M247 254l2 -246l-200 -1l-2 691h322q105 0 175 -51q79 -57 79 -159q0 -153 -122 -203q-75 -31 -254 -31zM433 556l-233 16l-8 -195l241 4v175z" />
<glyph unicode="Q" horiz-adv-x="715" d="M519 47v-80h146v-134h-139q-154 0 -154 152q-172 0 -261 105q-83 98 -83 275q0 151 80 247q86 103 234 103q162 0 256 -88t94 -250q0 -111 -36 -195q-45 -106 -137 -135zM261 555l-5 -413l241 11l3 376z" />
<glyph unicode="R" horiz-adv-x="677" d="M452 15l-6 11q4 -12 9 -12q0 42 -10 93q-25 127 -25 154h-173l3 -246l-202 1q0 156 -1 253q-4 386 -4 422h372q88 0 142 -37q62 -43 62 -128q0 -78 -41 -115q-54 -33 -108 -65q11 -7 34 -15.5t51 -17.5q71 -26 82.5 -155t22.5 -150zM187 573l2 -173h198l4 164z" />
<glyph unicode="S" horiz-adv-x="729" d="M408 -12h-68q-133 0 -211 51q-92 60 -92 185h205v-102l249 -7l7 147q-157 0 -204 5q-122 13 -186 61q-82 61 -82 183q0 96 76 158q71 58 171 58l103 1q115 0 185 -51q77 -56 90 -166l-209 3l-3 73h-250l-1 -120q174 0 217 -4q132 -12 203 -62q90 -63 90 -191 q0 -115 -91 -173q-77 -49 -199 -49z" />
<glyph unicode="T" horiz-adv-x="605" d="M586 553l-170 15q0 -75 2 -179.5t4 -208.5t2 -180l-206 11q0 21 5 106q2 34 2 64v337h-201l5 190q149 -13 310 -13q40 0 133.5 5.5t121.5 5.5z" />
<glyph unicode="U" horiz-adv-x="629" d="M324 -6q-144 0 -214 82q-65 76 -65 220l-17 410l191 -17l-2 -107q0 -67 7 -161q16 -216 16 -270l197 -2q0 27 3 82t3 83q0 56 -10 233q-5 89 -5 140h159q0 -88 3.5 -242t3.5 -199q0 -121 -73.5 -186.5t-196.5 -65.5z" />
<glyph unicode="V" horiz-adv-x="601" d="M399 -5l-198 16l-185 699l192 -6l116 -509l16 -16l6 4q29 101 60 255q26 128 52 257l136 -11q-24 -118 -55 -232q-27 -99 -67 -229q-8 -27 -73 -228z" />
<glyph unicode="W" horiz-adv-x="959" d="M801 13h-220l-54 330q-23 135 -28 139l-9 5q-13 0 -17.5 -50.5t-7.5 -89.5q-10 -82 -35 -172q-18 -64 -55 -168l-210 1q-32 173 -43 230q-20 100 -49 229q-24 105 -55 228l196 -4q5 -32 22.5 -166.5t21.5 -163.5q12 -80 32 -164l5 -4q10 0 13 8q23 58 42 155q7 35 28 168 q16 98 32 162l209 -3q0 -95 28 -244q24 -122 49 -244l11 -13q11 5 32 123q17 98 36 229q10 76 21 153l148 1q-9 -42 -45 -225q-24 -120 -46 -225q-27 -126 -52 -225z" />
<glyph unicode="X" horiz-adv-x="689" d="M471 24q-35 48 -83 135l-46 84l-13 -6q-30 -48 -63 -113l-58 -116l-186 -1l215 360l-219 326h228q33 -64 58 -110q50 -89 66 -89q15 0 62 84l56 104l170 -9l-200 -294l223 -355h-210z" />
<glyph unicode="Y" d="M364 276q0 -41 12 -180q6 -70 6 -108l-186 19q0 43 7 170q4 73 4 102l-190 434l179 -1q46 -131 93 -261l12 -7q19 3 62 126t49 141l149 -12z" />
<glyph unicode="Z" horiz-adv-x="633" d="M426 549q-12 6 -29 6q-47 0 -217 -16q-85 -8 -131 -8l3 146q93 0 186 -0.5l186 -1t186 -0.5l-1 -164q-74 -102 -115 -152q-33 -40 -78 -85q-58 -53 -116 -105l-11 -19q9 -6 51 -9t92 -3q55 0 96 1t76 2l6 -130h-576l5 136q16 19 118 121l179.5 179.5t91.5 92.5z" />
<glyph unicode="[" horiz-adv-x="272" d="M52 -169v882h182v-44h-114v-795h118v-43h-186z" />
<glyph unicode="\" horiz-adv-x="410" d="M323 -17q-62 163 -92 240q-46 117 -97 238q-41 98 -103 236l59 21q46 -120 92 -239q36 -91 96 -238q50 -122 100 -236z" />
<glyph unicode="]" horiz-adv-x="290" d="M87 -169v43h118v795h-114v44l182 2v-884h-186z" />
<glyph unicode="^" horiz-adv-x="319" d="M284 536l-126 28l-120 -38l-15 23l135 105l134 -95z" />
<glyph unicode="_" horiz-adv-x="643" d="M7 -146v12h660v-12h-660z" />
<glyph unicode="`" horiz-adv-x="260" d="M215 538l-179 80q9 17 16 33.5t12 36.5q77 -61 173 -124z" />
<glyph unicode="a" horiz-adv-x="563" d="M371 13v14q0 12 -6 30l-5 -1q-37 -30 -65.5 -43.5t-69.5 -13.5q-85 0 -134 27q-63 35 -63 113q0 103 119 141q72 23 202 23l1 93q-33 3 -67.5 6t-65.5 3h-12.5t-17.5 -4q-3 -12 -6 -27t0 -20l-135 -4l-1 4q0 86 85 118q54 20 157 20q149 0 199 -48q40 -38 40 -142 q0 -22 -2 -80.5t-2 -70.5q0 -28 1.5 -44t11.5 -97zM210 208q-10 -17 -15 -28t-5 -27q0 -15 2 -24.5t8 -22.5h178l6 102h-174z" />
<glyph unicode="b" horiz-adv-x="585" d="M344 -7q-84 0 -143 52l-21 -39l-30 1q-23 0 -49.5 -5.5t-51.5 -11.5q0 44 3.5 132t3.5 119v140q0 160 -16 341q45 -6 105.5 -7.5t85.5 -1.5l-6 -266q21 28 60 41t81 13q102 0 152 -66q44 -58 44 -164q0 -109 -53 -188q-61 -90 -165 -90zM365 359l-177 -6l7 -232l168 -2 q7 70 7 150q0 40 -5 90z" />
<glyph unicode="c" horiz-adv-x="593" d="M296 -10q-117 0 -188 65q-75 68 -75 184q0 113 76.5 190.5t189.5 77.5q103 0 171 -51q76 -57 76 -156l-184 -6l8 87l-151 4v-276l172 2l7 93q35 -4 79 -4h11h34.5t35.5 1h10q0 -102 -87 -160q-76 -51 -185 -51z" />
<glyph unicode="d" horiz-adv-x="600" d="M418 8l-9 44q-38 -25 -79 -39.5t-83 -14.5q-110 0 -166 63.5t-56 176.5q0 108 56 178q61 76 166 76q52 0 87.5 -13t73.5 -47l-9 270l165 -1v-695q-33 3 -67 3q-20 0 -40 -0.5t-39 -0.5zM355 343l-174 -5v-208h183z" />
<glyph unicode="e" horiz-adv-x="585" d="M307 -7q-130 0 -207 71t-77 201q0 104 65 169t170 65q288 0 288 -291q-47 0 -157 5.5t-144 5.5q-11 0 -20 -9t-8 -20l16 -99l147 4l15 67l151 -3q0 -86 -80 -130q-65 -36 -159 -36zM356 391h-170q-6 -11 -11 -25.5t-5 -27.5q0 -33 14 -58l182 15z" />
<glyph unicode="f" horiz-adv-x="472" d="M331 540l3 50q0 45 -38 45h-63l-2 -184h187l6 -119l-142 6v-348l-187 14q0 22 4 67t4 68v222h-64l-11 97h76q0 139 34 198q47 81 178 81q97 0 130 -59q24 -43 24 -148z" />
<glyph unicode="g" d="M280 -217q-110 0 -174 34q-85 45 -85 145l3 25l168 -8l-3 -83h162v164q-20 -12 -58.5 -22t-63.5 -10q-97 0 -151.5 62.5t-54.5 161.5q0 110 59.5 172.5t169.5 62.5q89 0 150 -65q26 17 26 50h111v-432q0 -135 -62 -196t-197 -61zM400 352l-182 9l3 -202l187 5z" />
<glyph unicode="h" horiz-adv-x="503" d="M332 0l2 178q0 49 -5.5 95.5t-16.5 89.5l-138 1q0 -43 -2.5 -117t-2.5 -89q0 -39 2 -72.5t8 -64.5l-138 8q0 43 3 129t3 129q0 62 -4 153q-9 205 -9 256l184 -10l-4 -225l12 -21q60 37 64 39q34 17 73 17q60 0 90 -42q26 -37 26 -100v-352q-24 0 -73 -1t-74 -1z" />
<glyph unicode="i" horiz-adv-x="301" d="M164 518l-2 2q-36 0 -62 27t-26 62q0 36 26 63t61 27q32 0 60 -25t28 -57q0 -38 -24 -68.5t-61 -30.5zM87 8l-13 451h176l-1 -452z" />
<glyph unicode="j" horiz-adv-x="321" d="M169 516q-40 0 -67.5 28.5t-27.5 69.5q0 37 28.5 63.5t66.5 26.5q40 0 71 -27.5t31 -67.5q0 -38 -31.5 -65.5t-70.5 -27.5zM81 -217h-63v126h69l-13 551h176l-1 -486q0 -102 -30 -142q-37 -49 -138 -49z" />
<glyph unicode="k" horiz-adv-x="574" d="M379 -5l-102 229l-85 -80v-138l-147 -4l2 241q0 86 -2.5 156t-5.5 156.5t-3 141.5h180v-361l15 -15q21 2 79 65q37 42 75 85l162 -4l-156 -142l176 -310z" />
<glyph unicode="l" horiz-adv-x="301" d="M232 318q0 -58 3 -116q9 -175 9 -194l-172 5l-6 682l179 -5q0 -56 -4 -139q-9 -186 -9 -233z" />
<glyph unicode="m" horiz-adv-x="915" d="M714 7l2 101q0 113 -17 230h-153v-325l-175 -5l2 101q0 62 -3 122.5t-10 126.5l-146 2q0 -41 -5.5 -138.5t-5.5 -126.5v-33t4 -47l-175 -11q5 50 6 90t1 105q0 64 -1.5 161.5t-1.5 98.5l118 -1v-65q39 40 94 66.5t109 26.5q58 0 96 -20t61 -71q64 53 70 57q54 38 135 38 q64 0 107 -29q50 -34 50 -94l11 -363z" />
<glyph unicode="n" horiz-adv-x="549" d="M353 4q0 32 2 108t2 82q0 32 -5 73.5t-9 80.5l-143 -5v-21q0 -49 -1 -147t-1 -147l-168 -3q0 52 2 94q7 146 7 157q0 31 -2 68q-5 92 -5 115l141 -6l1 -55q45 38 96 60q57 25 111 25q87 0 116 -47q22 -35 22 -128v-304h-166z" />
<glyph unicode="o" horiz-adv-x="570" d="M289 -6q-117 0 -186 76.5t-69 196.5q0 105 67 169t172 64q112 0 193.5 -80.5t81.5 -192.5q0 -107 -77 -172q-72 -61 -182 -61zM354 390l-146 -13l-26 -239l192 -19z" />
<glyph unicode="p" horiz-adv-x="582" d="M349 2q-64 0 -117 23v-236l-170 5v83q0 129 -1.5 227t-5 168.5t-14.5 183.5h119l-1 -16q0 -10 2.5 -16.5t11.5 -8.5q51 43 69 56q29 21 92 21q102 0 164.5 -64.5t62.5 -167.5t-53 -176q-60 -82 -159 -82zM376 336l-171 4v-221l171 5v212z" />
<glyph unicode="q" horiz-adv-x="601" d="M545 23q0 -43 3 -86q9 -128 9 -142l-193 -24l1 249q-47 -15 -72.5 -20t-46.5 -5q-108 0 -169 74q-57 69 -57 180q0 108 67.5 177.5t175.5 69.5q56 0 117 -31q18 -9 64 -38l14 6l6 14l2 14l92 9q0 -67 -4 -167q-9 -224 -9 -280zM391 353l-177 21v-234l187 -8z" />
<glyph unicode="r" horiz-adv-x="471" d="M53 333l2 10q0 24 -6.5 59.5t-12.5 67.5l149 -10l4 -81q15 43 53.5 67.5t85.5 24.5q86 0 113 -81q15 -45 15 -153l-156 19l1 38q0 12 -0.5 25t-0.5 26l-89 2q0 -78 2.5 -198t2.5 -138h-171q0 32 3.5 97t3.5 89q0 23 -3 54q-7 72 -7 89l2 9z" />
<glyph unicode="s" horiz-adv-x="514" d="M269 -6q-95 0 -155 34q-75 43 -75 131q78 -13 146 -13l-1 -21q0 -12 7 -28l20 -5l140 -1q10 0 13 11t3 26v11q0 17 -3 25t-9 10q-15 5 -146 21q-173 21 -173 169q0 69 52 104q45 30 117 30l49 -1q76 0 132 -32q67 -38 78 -107l-145 5l3 21q0 14 -11.5 21.5t-26.5 7.5 h-119v-82q68 -7 137 -14q85 -13 131 -44q60 -41 60 -117q0 -89 -71 -130q-56 -32 -153 -32z" />
<glyph unicode="t" horiz-adv-x="434" d="M238 7q-95 0 -135 36t-40 130q0 30 15 133q7 48 7 80q0 10 -13 13.5t-34 3.5q-18 -1 -22 -1l4 87h90l53 150h84l-11 -145l149 2l-9 -127l-147 9l-10 -288l94 5l2 93l106 -4q-14 -104 -45 -137q-37 -40 -138 -40z" />
<glyph unicode="u" horiz-adv-x="553" d="M391 40l1 14q0 17 -14 23q-33 -14 -63 -40q-39 -34 -118 -34q-101 0 -138 54q-28 41 -28 130q0 17 1 52.5t1 52.5q0 68 -1.5 97.5t-7.5 84.5l176 -3l-8 -347h161l-4 354h165l-2 -121q0 -50 7 -198q4 -85 4 -119h-132z" />
<glyph unicode="v" horiz-adv-x="484" d="M308 6h-166l-131 461h174l53 -320l14 -14q20 17 54 147q20 84 41 169h124z" />
<glyph unicode="w" horiz-adv-x="794" d="M16 469h162l56 -305l13 -13q13 6 46 144l38 166l170 8q20 -88 41 -175q37 -150 45 -153q17 7 44 147q15 85 30 171l115 -1q-20 -110 -53 -224q-29 -103 -73 -219l-184 -5q-24 129 -40.5 206.5t-25.5 86.5l-8 -3l-9 -17q-20 -70 -30.5 -101t-61.5 -169h-155z" />
<glyph unicode="x" horiz-adv-x="524" d="M310 31l-68 130l-93 -152l-135 15l153 234l-141 222h184l72 -136l76 128h130l-126 -193l148 -248h-200z" />
<glyph unicode="y" horiz-adv-x="511" d="M160 -213q-86 0 -118 43q-28 37 -28 126l121 -7v-75h61q9 22 12.5 45.5t3.5 52.5q0 20 -43 134t-85 217q-32 77 -64 155l178 1q31 -109 63 -218q28 -89 37 -95q14 6 47 150q6 25 36 173q57 -17 115 -17l-189 -610q-12 -37 -61 -58q-40 -17 -86 -17z" />
<glyph unicode="z" horiz-adv-x="509" d="M483 8q-66 0 -285 12q-109 6 -172 6l3 81l82 76q72 68 119 114q61 60 61 68q0 11 -22 15t-60 4q-36 0 -76 -2.5t-86 -5.5l2 102q84 0 231 -3.5t190 -3.5l-5 -129q-66 -63 -111 -108q-88 -87 -94 -103q8 -13 18 -14q16 4 43 6t48 2l120 -3q-4 -28 -5 -54t-1 -60z" />
<glyph unicode="{" horiz-adv-x="293" d="M212 -181q-64 0 -90 56q-19 41 -19 123q0 33 1.5 61t3.5 65q0 60 -9 89q-16 50 -61 58q43 10 60 49q13 30 13 87q0 24 -4 78t-4 80q0 73 25 108q32 45 112 45q-46 -20 -65 -67q-15 -38 -15 -98q0 -21 5 -91q2 -28 2 -48q0 -57 -17 -91q-21 -41 -72 -54q52 -12 73 -59 q17 -38 17 -103q0 -22 -3.5 -69.5t-3.5 -66.5q0 -57 14 -91q19 -45 66 -59z" />
<glyph unicode="|" horiz-adv-x="164" d="M70 -228v928h38v-928h-38z" />
<glyph unicode="}" horiz-adv-x="293" d="M55 -175q45 14 63 60q15 37 15 97q0 27 -4 77t-4 67q0 59 16 92q21 43 72 55q-51 13 -72 59q-17 37 -17 99q0 20 5 86q2 26 2 46q0 58 -14 93q-19 46 -65 64l24 1q64 0 91 -61q20 -46 20 -134q0 -40 -2 -71t-4 -73q0 -43 17 -70.5t56 -37.5q-40 -7 -57 -51 q-13 -34 -13 -95q0 -24 5 -88q2 -26 2 -42q0 -82 -26 -123q-32 -50 -110 -50z" />
<glyph unicode="~" horiz-adv-x="373" d="M238 555q-13 0 -50 17t-61 17q-21 0 -39 -13q-13 -9 -29 -30l-20 21q15 30 32 47q23 23 50 23q25 0 60 -20.5t50 -20.5q18 0 46.5 20t37.5 37l16 -16q-9 -32 -35 -57t-58 -25z" />
<glyph horiz-adv-x="511" d="M207 136l-110 -109l-37 38l71 71h-88v56h139l72 71h-211v56h261l110 110l38 -39l-72 -71h88v-56h-138l-72 -71h210v-56h-261z" />
<glyph horiz-adv-x="664" d="M479 116q-50 0 -86 36q-29 29 -52 83q-27 -52 -58 -81q-41 -39 -90 -39q-66 0 -104.5 51t-38.5 120q0 68 32 116q37 55 103 55q49 0 86 -37q28 -28 52 -80q26 52 57 81q39 36 90 36q63 0 104 -54q38 -50 38 -115q0 -70 -31 -117q-36 -55 -102 -55zM489 406q-44 0 -83 -53 q-22 -29 -51 -93q20 -41 52.5 -65t75.5 -24q50 0 80.5 33.5t30.5 85.5q0 50 -27.5 83t-77.5 33zM182 402q-50 0 -80.5 -33.5t-30.5 -85.5q0 -49 26.5 -83t74.5 -34q47 0 86 52q21 28 52 95q-22 40 -52 63q-34 26 -76 26z" />
<glyph unicode="&#x201a;" horiz-adv-x="511" d="M42 240v58l428 135v-62l-326 -102l326 -101v-62zM41 26v60h429v-60h-429z" />
<glyph unicode="&#x192;" horiz-adv-x="474" d="M408 748q-12 8 -20 13q-16 10 -21 11q-20 0 -37 -105q-10 -66 -20 -131h101l-5 -38h-106q-15 -92 -30 -183q-34 -180 -76 -287q-58 -149 -128 -149q-18 0 -33 10.5t-15 28.5t13 31t32 13l12 -3l22 -24q32 0 55 89q19 100 23 119l69 355h-109l1 38h121q25 121 46 174 q46 118 111 118q15 0 29.5 -11.5t14.5 -26.5q0 -19 -15.5 -30.5t-34.5 -11.5z" />
<glyph unicode="&#x201e;" horiz-adv-x="520" d="M332 -126q-7 0 -21 4v60h87q10 20 10 46q0 8 -4 16t-10 16q-44 0 -73 19q-33 22 -33 64l1 4q0 42 28 71t71 29q57 0 84 -44q23 -37 23 -97q0 -90 -35 -136q-40 -52 -128 -52zM66 -128q-6 0 -14.5 2.5t-14.5 3.5v61h93q9 18 9 39t-14 38q-44 0 -65 16q-24 19 -24 62 t26.5 72.5t67.5 29.5q59 0 86 -48q21 -38 21 -103q0 -89 -41 -131t-130 -42z" />
<glyph unicode="&#x2026;" horiz-adv-x="1041" d="M916 6q-49 0 -81 29t-32 77q0 46 31 68.5t80 22.5q40 0 71.5 -29.5t31.5 -70.5q0 -47 -27 -72t-74 -25zM529 4q-48 0 -80.5 28.5t-32.5 76.5q0 46 31 69t78 23q42 0 73.5 -29.5t31.5 -70.5q0 -47 -27 -72t-74 -25zM148 7q-49 0 -81 29t-32 77q0 46 31 69t78 23 q40 0 72.5 -30.5t32.5 -70.5q0 -47 -27 -72t-74 -25z" />
<glyph unicode="&#x2020;" horiz-adv-x="551" d="M305 415v-645h-54v645h-219v59h219v224h56v-224h222v-59h-224z" />
<glyph unicode="&#x2021;" horiz-adv-x="767" d="M499 -192v33h78v826h-384v-826h79v-33h-243v33h82v826h-82v33h712v-33h-82v-826h82v-33h-242z" />
<glyph unicode="&#x2c6;" horiz-adv-x="511" d="M478 752q-5 1 -65.5 13.5t-61.5 12.5l-120 -35l-15 21l135 106l134 -96z" />
<glyph unicode="&#x2030;" horiz-adv-x="254" d="M293 609q-22 0 -39 29.5t-29 29.5q-37 0 -49 -128q-6 -62 -6 -163v-60q0 -116 -9 -196q-14 -124 -49 -193q-44 -87 -122 -87q-29 0 -51 16t-22 44q0 42 44 42q22 0 46 -40q11 -19 22 -19q27 0 42 84t15 220q0 145 3 192q9 142 43 224q45 108 131 108q29 0 51.5 -16 t22.5 -44q0 -19 -12 -31t-32 -12z" />
<glyph unicode="&#x160;" horiz-adv-x="715" d="M436 148v-58h116q45 0 65 18t20 62h17v-161h-250v164q74 15 117 78q40 58 40 137q0 96 -54 157t-149 61q-94 0 -149 -61t-55 -157q0 -81 40 -138.5t117 -75.5v-165h-250v161h17q0 -44 20 -62t64 -18h117l1 58q-103 18 -164 76q-68 64 -68 164q0 121 97 188q86 59 213 59 q125 0 211 -59q98 -67 98 -188q0 -100 -67 -163q-60 -57 -164 -77z" />
<glyph unicode="&#x2039;" horiz-adv-x="511" d="M499 723l-271 -732h-27l-146 403l-57 -21l-10 33l126 44l118 -327l236 640h84v-40h-53z" />
<glyph unicode="&#x152;" horiz-adv-x="1110" d="M665 16q-40 0 -120 -8t-120 -8q-192 0 -292 90q-105 95 -105 285q0 165 87.5 254.5t252.5 89.5q38 0 80 -10q27 -6 79 -23l-3 5l509 11l5 -117l-321 -3l8 -148h271l1 -134q-40 0 -110 3.5t-91 3.5q-30 0 -55 -2q-87 -7 -93 -7v-121h430l1 -173q-77 0 -155 3 q-233 9 -259 9zM235 553l14 -414l243 -4l11 403z" />
<glyph horiz-adv-x="570" d="M21 9l257 624h18l256 -624h-531zM260 483l-178 -435h354z" />
<glyph horiz-adv-x="459" d="M230 -206l-226 483l226 480l225 -480zM230 654l-178 -377l178 -380l177 380z" />
<glyph horiz-adv-x="663" />
<glyph unicode="&#x2018;" horiz-adv-x="266" d="M160 385q-64 0 -97 40t-33 104q0 90 37.5 130.5t127.5 40.5l30 -3v-58l-95 -1q-3 -15 -4 -21.5t-1 -22.5q0 -15 1.5 -21.5t5.5 -9.5q48 1 79 -16.5t31 -62.5q0 -42 -21 -70.5t-61 -28.5z" />
<glyph unicode="&#x2019;" horiz-adv-x="264" d="M74 369l-22 3v60h86q5 12 7.5 21t2.5 16q0 26 -13 42q-45 0 -73 18q-34 22 -34 65l2 3q0 42 28.5 71.5t70.5 29.5q59 0 86 -43q22 -35 22 -99q0 -90 -35 -135q-40 -52 -128 -52z" />
<glyph unicode="&#x201c;" horiz-adv-x="528" d="M406 387q-57 0 -87 44q-26 38 -26 98q0 93 38 134t130 41l30 -3v-62l-99 -1q-3 -8 -6.5 -18.5t-3.5 -15.5q0 -19 12 -36l22 2q42 0 65 -26t23 -67q0 -44 -27 -67t-71 -23zM162 384q-64 0 -95.5 39.5t-31.5 104.5q0 90 38 130t128 40h12.5t17.5 -4v-56l-97 -1 q-2 -15 -3.5 -25t-1.5 -12q0 -5 4 -20t7 -21l27 3q34 0 57 -22t23 -57q0 -42 -22 -70.5t-63 -28.5z" />
<glyph unicode="&#x201d;" horiz-adv-x="520" d="M332 371l-21 3v60h87q10 20 10 47q0 8 -4 16t-10 15q-44 0 -73 19q-33 22 -33 65l1 3q0 42 28.5 71.5t70.5 29.5q57 0 84 -44q23 -37 23 -97q0 -90 -35 -136q-40 -52 -128 -52zM66 369q-9 0 -15.5 1.5t-13.5 3.5v62h93q9 18 9 38t-14 39q-44 0 -65 16q-24 19 -24 62 t26.5 72.5t67.5 29.5q59 0 86 -48q21 -38 21 -103q0 -89 -41 -131t-130 -42z" />
<glyph unicode="&#x2013;" horiz-adv-x="410" d="M32 243v120l348 -9v-121z" />
<glyph unicode="&#x2014;" horiz-adv-x="755" d="M32 245v120l696 -13v-122z" />
<glyph unicode="&#x2dc;" horiz-adv-x="516" d="M402 664q-13 0 -63 21q-26 11 -43 11q-21 0 -37 -12q-11 -8 -28 -30l-25 43q10 30 29.5 49t47.5 19q20 0 43 -12q54 -28 60 -28q18 0 43 19.5t37 38.5l25 -37q-8 -29 -34.5 -55.5t-54.5 -26.5z" />
<glyph unicode="&#x2122;" horiz-adv-x="691" d="M625 341v329l-124 -329h-28l-118 332v-332h-33v359h51l116 -323l118 321h48v-357h-30zM176 673v-333h-31v333h-113v27h258v-27h-114z" />
<glyph unicode="&#x153;" horiz-adv-x="912" d="M640 -6q-53 0 -100.5 13.5t-88.5 41.5q-71 -55 -167 -55q-116 0 -188 75t-72 192q0 106 67 171t174 65q41 0 85.5 -14.5t77.5 -37.5q35 28 74.5 42.5t83.5 14.5q290 0 290 -294q-56 0 -112 3q-168 9 -187 9q-3 0 -9.5 -2t-9.5 -3l-12 -29q5 -19 8.5 -45t7.5 -50l148 4 l14 67l151 -4q0 -84 -79 -128q-64 -36 -156 -36zM690 397h-171q-15 -24 -15 -50q0 -32 12 -61l183 14zM345 390l-145 -15l-25 -237l191 -19z" />
<glyph unicode="&#x178;" d="M364 276q0 -41 12 -180q6 -70 6 -108l-186 19q0 43 7 170q4 73 4 102l-190 434l179 -1q46 -131 93 -261l12 -7q19 3 62 126t49 141l149 -12zM225 740q-26 0 -43.5 16.5t-17.5 43.5q0 24 17 37t42 13q22 0 39.5 -16.5t17.5 -38.5q0 -55 -55 -55zM391 742q-27 0 -45.5 16.5 t-18.5 43.5q0 24 17.5 36.5t42.5 12.5q23 0 41 -16t18 -40q0 -53 -55 -53z" />
<glyph unicode="&#xa1;" horiz-adv-x="262" d="M131 338q-38 0 -64.5 24.5t-26.5 61.5t28.5 57t66.5 20q41 0 63.5 -19.5t22.5 -60.5q0 -40 -24.5 -61.5t-65.5 -21.5zM56 -229q0 55 8 168t8 171q0 37 -1 61q-4 94 -4 104l115 -25q47 -223 47 -463z" />
<glyph unicode="&#xa2;" horiz-adv-x="605" d="M366 103v-86l-97 -9v94q-126 0 -186 91q-50 76 -50 210q0 101 70.5 182t169.5 81l-4 4v59h90v-63q92 0 150 -49q62 -53 62 -143h-160l2 48q0 20 -11 26.5t-33 6.5q-15 -3 -22 -4v-316l71 -1q14 0 19 13t5 33v21h137q0 -88 -62 -143t-151 -55zM274 540h-84v-308h84v308z " />
<glyph unicode="&#xa3;" horiz-adv-x="637" d="M575 2l-486 13l5 323l-74 -4l2 87h74q0 11 -3.5 38.5t-3.5 40.5q0 105 82 160q72 48 182 48q111 0 161 -36q59 -43 59 -150l-159 -6l-3 73h-162l1 -182l203 -5l-8 -128l-173 18l10 -145l191 10v80l122 17z" />
<glyph unicode="&#xa5;" horiz-adv-x="565" d="M425 409l48 -4v-120h-106l4 -50l116 -3v-123l-111 2l6 -118l-182 20l4 106h-98v120l101 2v51h-113v121l57 2l-130 302l179 -4q45 -132 90 -263q7 -3 15 -5q15 0 58 117q26 74 53 149l149 -12z" />
<glyph unicode="&#xa7;" horiz-adv-x="527" d="M386 52q59 -46 59 -118q0 -68 -49.5 -108.5t-119.5 -40.5q-73 0 -127.5 53.5t-54.5 126.5l2 8h56l-1 -20q-4 -51 34 -83t92 -32q41 0 72.5 26t31.5 67q0 77 -85 132l-160 90q-86 60 -86 145q0 43 34 83q14 16 69 63q-47 44 -47 107t50.5 101.5t116.5 38.5q78 0 125 -46 t47 -125h-50q0 52 -33 85t-85 33q-42 0 -79.5 -25.5t-37.5 -65.5q0 -59 86 -115q81 -49 162 -97q87 -62 87 -136q0 -60 -28 -92q-20 -23 -81 -55zM183 412l-54 -46q-30 -31 -30 -62t16 -54.5t44 -41.5l194 -126q37 14 52 24q36 25 36 81q0 27 -13.5 49.5t-37.5 37.5z" />
<glyph unicode="&#xa8;" horiz-adv-x="339" d="M258 543q-27 0 -45.5 16.5t-18.5 43.5q0 25 17 37.5t44 12.5q23 0 40 -16t17 -41t-15 -39t-39 -14zM93 542q-27 0 -45 15t-18 43q0 26 17 38.5t44 12.5q23 0 39.5 -15.5t16.5 -38.5q0 -55 -54 -55z" />
<glyph unicode="&#xa9;" horiz-adv-x="769" d="M389 -10q-158 0 -260.5 101.5t-102.5 258.5q0 159 102 261t262 102q159 0 259.5 -101.5t100.5 -261.5q0 -158 -101 -259t-260 -101zM389 679q-142 0 -235 -92t-93 -236q0 -142 93 -234t236 -92q142 0 233 92t91 236q0 142 -91 234t-234 92zM378 126q-90 0 -137 71 q-41 62 -41 155t48 157q53 71 143 71q64 0 113.5 -37t57.5 -99l-39 -1q-13 47 -47 74t-82 27q-76 0 -117 -61q-35 -53 -35 -133t29 -130q36 -61 111 -61q53 0 93 33t51 85h39q-12 -72 -62.5 -111.5t-124.5 -39.5z" />
<glyph unicode="&#xaa;" horiz-adv-x="361" d="M234 411v7l-2 21q-20 -13 -40 -25q-22 -11 -48 -11q-50 0 -78 16q-36 20 -36 67q0 63 70 84q39 12 121 12v56q-39 6 -79 6l-18 -2q-4 -12 -4 -28l-80 -1q15 58 57 74q24 9 98 9q83 0 110 -33q20 -25 20 -92q0 -16 -0.5 -29.5t-0.5 -24.5v-8v-35q0 -10 3 -31t3 -32h-96z M58 314l2 57h249l9 -59zM136 528q-9 -13 -9 -32q0 -17 4 -29h109l2 62z" />
<glyph unicode="&#xab;" horiz-adv-x="534" d="M237 82v105l-149 107l150 108v98l-208 -153v-103zM501 84v105l-149 105l154 108v99l-210 -154v-101z" />
<glyph unicode="&#xac;" horiz-adv-x="782" d="M686 9v253h-668v54h723v-307h-55z" />
<glyph unicode="&#xae;" horiz-adv-x="771" d="M386 -9q-158 0 -261 101t-103 259q0 159 102.5 261.5t261.5 102.5t260 -102t101 -260q0 -159 -101.5 -260.5t-259.5 -101.5zM385 680q-143 0 -236 -93t-93 -237q0 -142 93.5 -233.5t235.5 -91.5q143 0 234.5 91.5t91.5 234.5q0 144 -91.5 236.5t-234.5 92.5zM514 133 q-8 19 -13 107t-80 88h-142v-199h-38v434h158q68 0 107 -22q51 -29 51 -91q0 -37 -19.5 -64.5t-55.5 -41.5q39 -21 50 -57q6 -20 6 -79q0 -28 2.5 -43t14.5 -32h-41zM277 532v-170h124q50 0 78 16q37 21 37 68q0 54 -52 75q-35 14 -100 14z" />
<glyph unicode="&#xb0;" horiz-adv-x="372" d="M186 369q-57 0 -97.5 40.5t-40.5 97.5t40.5 97.5t97.5 40.5q56 0 97 -41t41 -97t-41 -97t-97 -41zM185 612q-44 0 -74 -31t-30 -75q0 -43 30.5 -73.5t73.5 -30.5t74 31t31 74t-31 74t-74 31z" />
<glyph unicode="&#xb1;" horiz-adv-x="480" d="M265 308v-178h-44v178h-174v48h174v176l46 2v-180h177v-46h-179zM37 7v37h404v-36z" />
<glyph unicode="&#xb4;" horiz-adv-x="255" d="M53 540l-22 25q70 46 88 59q41 29 85 65q3 -19 9 -33.5t19 -36.5z" />
<glyph unicode="&#xb5;" horiz-adv-x="587" d="M433 2q-33 0 -56.5 32t-23.5 66q-40 -43 -66 -62q-45 -34 -81 -34q-32 0 -60 16t-51 44v-40q0 -23 23 -96q11 -35 11 -59q0 -22 -12 -41t-34 -19q-19 0 -31.5 16.5t-12.5 35.5q0 24 9 58q20 76 20 96v476l77 3v-326q0 -40 24.5 -71.5t63.5 -31.5q40 0 80 31t40 70v328h75 v-370q0 -28 16 -53.5t43 -25.5q22 0 35 23q7 13 16 43h13q-9 -49 -39 -79t-79 -30z" />
<glyph unicode="&#xb6;" horiz-adv-x="684" d="M553 732v-56h-35v-840h-59v840h-148v-840h-60v499q-75 12 -117.5 63.5t-42.5 129.5q0 98 65 153q61 51 161 51h236z" />
<glyph unicode="&#xb7;" horiz-adv-x="394" d="M200 141q-63 0 -107.5 45.5t-44.5 109.5q0 61 46 106t108 45q63 0 108 -46t45 -109t-46 -107t-109 -44z" />
<glyph unicode="&#x2219;" horiz-adv-x="394" d="M200 141q-63 0 -107.5 45.5t-44.5 109.5q0 61 46 106t108 45q63 0 108 -46t45 -109t-46 -107t-109 -44z" />
<glyph unicode="&#xbb;" horiz-adv-x="534" d="M307 82v105l149 107l-151 108v98l209 -153v-103zM43 84v105l149 105l-155 108v99l210 -154v-101z" />
<glyph unicode="&#xbf;" horiz-adv-x="572" d="M338 314q-46 0 -81 21q-42 25 -42 69q0 46 29.5 70.5t76.5 24.5q40 0 73.5 -29.5t33.5 -69.5q0 -34 -28 -60t-62 -26zM303 -233q-108 0 -181 44q-89 54 -89 156q0 112 51 163t164 51l-4 76h155v-180h-194v-180h168v100h168v-10q0 -105 -65.5 -162.5t-172.5 -57.5z" />
<glyph unicode="&#xc0;" horiz-adv-x="669" d="M425 739l-178 79q8 17 15.5 35t11.5 35q36 -29 85 -64q43 -30 87 -60zM435 9l-48 153h-169l-33 -154l-170 -1l223 691h219l202 -689h-224zM324 580l-79 -288h152z" />
<glyph unicode="&#xc1;" horiz-adv-x="693" d="M271 745l-20 24q43 30 87 60q54 37 85 64q2 -13 7.5 -29t19.5 -41zM435 9l-48 153h-169l-33 -154l-170 -1l223 691h219l202 -689h-224zM324 580l-79 -288h152z" />
<glyph unicode="&#xc2;" horiz-adv-x="695" d="M474 752q-4 1 -64.5 13.5t-61.5 12.5l-120 -35l-14 21l133 106l135 -96zM435 10l-48 153h-169l-33 -154l-170 -1l223 691h219l202 -689h-224zM324 581l-79 -288h152z" />
<glyph unicode="&#xc3;" horiz-adv-x="677" d="M397 739q-11 0 -61 21q-26 11 -45 11q-21 0 -38 -12q-12 -8 -28 -29l-25 41q13 32 30 49q22 21 54 21q19 0 52 -20t44 -20q18 0 43.5 19t36.5 37l25 -36q-8 -30 -32 -54q-27 -28 -56 -28zM434 8l-48 153h-169l-33 -154l-170 -1l223 691h219l202 -689h-224zM323 579 l-79 -288h152z" />
<glyph unicode="&#xc4;" horiz-adv-x="669" d="M263 740q-26 0 -43.5 16.5t-17.5 43.5q0 24 17 37t42 13q22 0 39.5 -16.5t17.5 -38.5q0 -55 -55 -55zM429 742q-27 0 -45.5 16.5t-18.5 43.5q0 24 17.5 36.5t42.5 12.5q23 0 41 -16t18 -40q0 -53 -55 -53zM435 9l-48 153h-169l-33 -154l-170 -1l223 691h219l202 -689 h-224zM324 580l-79 -288h152z" />
<glyph unicode="&#xc5;" horiz-adv-x="669" d="M342 739q-29 0 -50 22t-21 50q0 31 22.5 54.5t52.5 23.5q33 0 53.5 -20.5t20.5 -52.5t-22.5 -54.5t-55.5 -22.5zM435 9l-48 153h-169l-33 -154l-170 -1l223 691h219l202 -689h-224zM344 845q-11 0 -20 -8t-9 -19q0 -19 6 -29t23 -10q29 0 29 25q0 17 -6.5 29t-22.5 12z M324 580l-79 -288h152z" />
<glyph unicode="&#xc6;" horiz-adv-x="1112" d="M429 11l-7 155h-169l-75 -155h-168l406 689l613 2l5 -117l-320 -3l7 -148h271l1 -134q-40 0 -110 3.5t-90 3.5q-30 0 -55 -2q-87 -7 -94 -7v-121h431v-173q-143 0 -233 1.5t-215.5 3.5t-197.5 2zM313 292h153l4 288z" />
<glyph unicode="&#xc7;" horiz-adv-x="737" d="M357 -14v-30l2 -10q20 14 46 14q29 0 48 -18t19 -48q0 -29 -23 -51t-52 -22q-33 0 -55.5 15t-22.5 47l52 2v-34l49 2v69l-59 2l-4 -13l-37 1l6 78q-143 23 -219.5 121t-76.5 244l4 -5q0 158 89 262q94 110 250 110q146 0 231 -68q93 -74 93 -218l-216 6l-8 142h-208v-427 h245l5 124l182 -13q0 -122 -94 -205q-90 -79 -213 -79h-16q-12 2 -17 2z" />
<glyph unicode="&#xc8;" horiz-adv-x="673" d="M396 743l-180 78q20 34 29 72q33 -28 84 -65q30 -22 88 -61zM39 6q0 95 2 172q7 268 7 289q0 36 -8 109t-8 110l543 14l6 -118l-320 -2l8 -148h272v-134q-40 0 -111 3.5t-92 3.5q-30 0 -55 -2q-86 -7 -93 -7v-119h431v-176q-135 0 -218 1q-331 4 -364 4z" />
<glyph unicode="&#xc9;" horiz-adv-x="651" d="M246 746l-22 25q33 21 66 43q57 38 107 81q3 -19 9 -33.5t19 -36.5zM39 6q0 95 2 172q7 268 7 289q0 36 -8 109t-8 110l543 14l6 -118l-320 -2l8 -148h272v-134q-40 0 -111 3.5t-92 3.5q-30 0 -55 -2q-86 -7 -93 -7v-119h431v-176q-135 0 -218 1q-331 4 -364 4z" />
<glyph unicode="&#xca;" horiz-adv-x="664" d="M452 754q-37 8 -66 14q-59 12 -60 12l-120 -36l-15 22l135 106l134 -96zM38 6q0 95 2 172q7 268 7 289q0 36 -8 109t-8 110l543 14l6 -118l-320 -2l8 -148h272v-134q-40 0 -111 3.5t-92 3.5q-30 0 -55 -2q-86 -7 -93 -7v-119h431v-176q-135 0 -218 1q-331 4 -364 4z" />
<glyph unicode="&#xcb;" horiz-adv-x="673" d="M246 742q-29 0 -46 15.5t-17 43.5q0 25 17.5 37.5t43.5 12.5q23 0 39 -15t16 -39q0 -55 -53 -55zM408 744q-27 0 -45.5 16.5t-18.5 41.5t17.5 38.5t43.5 13.5q22 0 40 -17t18 -40q0 -53 -55 -53zM37 6q0 95 2 172q7 268 7 289q0 36 -8 109t-8 110l543 14l6 -118l-320 -2 l8 -148h272v-134q-40 0 -111 3.5t-92 3.5q-30 0 -55 -2q-86 -7 -93 -7v-119h431v-176q-135 0 -218 1q-331 4 -364 4z" />
<glyph unicode="&#xcc;" horiz-adv-x="312" d="M234 739l-179 79q8 17 15.5 35t11.5 35q38 -31 85 -64q15 -10 88 -60zM64 9l2 194q0 79 -3 184q-7 246 -7 308h194q0 -49 -3.5 -136.5t-3.5 -113.5q0 -90 2 -162q7 -252 7 -270z" />
<glyph unicode="&#xcd;" horiz-adv-x="314" d="M82 743l-21 24q81 54 172 125q3 -19 9 -33.5t19 -36.5zM64 9l2 194q0 79 -3 184q-7 246 -7 308h194q0 -49 -3.5 -136.5t-3.5 -113.5q0 -90 2 -162q7 -252 7 -270z" />
<glyph unicode="&#xce;" horiz-adv-x="321" d="M279 752q-4 1 -64.5 13.5t-61.5 12.5l-120 -35l-15 21l134 106l135 -96zM64 10l2 194q0 79 -3 184q-7 246 -7 308h194q0 -49 -3.5 -136.5t-3.5 -113.5q0 -90 2 -162q7 -252 7 -270z" />
<glyph unicode="&#xcf;" horiz-adv-x="312" d="M70 740q-27 0 -44.5 16.5t-17.5 43.5q0 25 17 37.5t43 12.5q22 0 39.5 -16.5t17.5 -38.5q0 -55 -55 -55zM234 742q-26 0 -44.5 16.5t-18.5 43.5q0 24 17.5 36.5t41.5 12.5q23 0 41 -16t18 -40q0 -53 -55 -53zM64 9l2 194q0 79 -3 184q-7 246 -7 308h194 q0 -49 -3.5 -136.5t-3.5 -113.5q0 -90 2 -162q7 -252 7 -270z" />
<glyph unicode="&#xd1;" horiz-adv-x="687" d="M411 737q-12 0 -61 21q-26 11 -44 11q-23 0 -38 -11q-10 -7 -28 -30l-25 41q10 29 28 47q22 23 49 23q21 0 56 -20t47 -20q19 0 43.5 19t36.5 38l26 -37q-9 -29 -35.5 -55.5t-54.5 -26.5zM463 12q-31 47 -61 94q-74 113 -90 138q-47 71 -53 76l11 -20q4 -4 4.5 -5t0.5 -2 q-3 0 -4 5.5t-1 10.5l-13 33q-10 24 -19 49q-19 44 -43 79l-8 3l-14 -15v-451l-143 1l7 686l211 -2q31 -50 89 -147q27 -45 86.5 -147t87.5 -149l8 -3l10 17l-15 417l145 -8v-664z" />
<glyph unicode="&#xd2;" horiz-adv-x="755" d="M460 743l-179 78q10 18 16.5 35.5t10.5 36.5q36 -28 86 -64l88 -62zM404 -9q-174 0 -273 104t-99 280q0 166 86 255t252 89q156 0 247 -93t91 -249q0 -155 -72 -262q-84 -124 -232 -124zM240 555l14 -414l241 -4l13 403z" />
<glyph unicode="&#xd3;" horiz-adv-x="748" d="M302 745l-20 24q43 30 87 60q22 16 85 64q3 -19 9 -33.5t19 -36.5zM404 -9q-174 0 -273 104t-99 280q0 166 86 255t252 89q156 0 247 -93t91 -249q0 -155 -72 -262q-84 -124 -232 -124zM240 555l14 -414l241 -4l13 403z" />
<glyph unicode="&#xd4;" horiz-adv-x="755" d="M499 756q-4 1 -64.5 13.5t-61.5 12.5l-120 -36l-14 21l134 106l135 -95zM404 -8q-174 0 -273 104t-99 280q0 166 86 255t252 89q156 0 247 -93t91 -249q0 -155 -72 -262q-84 -124 -232 -124zM240 556l14 -414l241 -4l13 403z" />
<glyph unicode="&#xd5;" horiz-adv-x="733" d="M424 744q-11 0 -61 21q-26 11 -45 11q-22 0 -38 -12q-10 -8 -28 -30l-25 43q12 30 28 47q22 22 50 22q21 0 58 -20t45 -20q18 0 43.5 19.5t35.5 37.5l27 -38q-8 -30 -34.5 -55.5t-55.5 -25.5zM400 -9q-175 0 -274 104t-99 280q0 166 85.5 254.5t251.5 88.5q160 0 250 -95 t90 -255q0 -149 -75 -256q-85 -121 -229 -121zM234 554l15 -414l240 -4l13 403z" />
<glyph unicode="&#xd6;" horiz-adv-x="735" d="M289 742q-28 0 -45 16t-17 43t16 38.5t45 11.5q23 0 39 -15t16 -39q0 -55 -54 -55zM453 744q-27 0 -45.5 16.5t-18.5 42.5q0 25 17.5 38t43.5 13q23 0 40 -16t17 -41t-15 -39t-39 -14zM403 -9q-174 0 -273 104t-99 280q0 166 86 255t252 89q156 0 247 -93t91 -249 q0 -155 -72 -262q-84 -124 -232 -124zM239 555l14 -414l241 -4l13 403z" />
<glyph unicode="&#xd8;" horiz-adv-x="731" d="M399 -7q-58 0 -109 13l-30 -87l-56 32l28 76q-104 41 -156 140q-46 87 -46 208q0 165 86.5 254.5t252.5 89.5q36 0 56.5 -2.5t50.5 -11.5l27 79l62 -20l-30 -78q87 -43 131 -127q41 -78 41 -180q0 -154 -75 -262q-86 -124 -233 -124zM476 540q-72 -201 -144 -401l159 -4 l13 403zM236 553l14 -414l26 2q20 50 50 133q7 20 47 134q29 82 48 135z" />
<glyph unicode="&#xd9;" horiz-adv-x="640" d="M406 741l-180 79q9 17 16.5 35t10.5 35q39 -32 85 -64q60 -40 89 -60zM324 -6q-144 0 -214 82q-65 76 -65 220l-17 410l191 -17l-2 -107q0 -67 7 -161q16 -216 16 -270l197 -2q0 27 3 82t3 83q0 56 -10 233q-5 89 -5 140h159q0 -88 3.5 -242t3.5 -199 q0 -121 -73.5 -186.5t-196.5 -65.5z" />
<glyph unicode="&#xda;" horiz-adv-x="649" d="M248 743l-22 24q98 67 173 124q2 -18 9 -33.5t19 -35.5zM324 -6q-144 0 -214 82q-65 76 -65 220l-17 410l191 -17l-2 -107q0 -67 7 -161q16 -216 16 -270l197 -2q0 27 3 82t3 83q0 56 -10 233q-5 89 -5 140h159q0 -88 3.5 -242t3.5 -199q0 -121 -73.5 -186.5 t-196.5 -65.5z" />
<glyph unicode="&#xdb;" horiz-adv-x="647" d="M450 750q-36 8 -65 14q-59 13 -61 12l-120 -35l-15 21l135 106l134 -96zM324 -6q-144 0 -214 82q-65 76 -65 220l-17 410l191 -17l-2 -107q0 -67 7 -161q16 -216 16 -270l197 -2q0 27 3 82t3 83q0 56 -10 233q-5 89 -5 140h159q0 -88 3.5 -242t3.5 -199 q0 -121 -73.5 -186.5t-196.5 -65.5z" />
<glyph unicode="&#xdc;" horiz-adv-x="626" d="M236 740q-26 0 -43.5 16.5t-17.5 43.5q0 24 17.5 36.5t41.5 12.5q23 0 39.5 -15.5t16.5 -38.5q0 -55 -54 -55zM402 742q-27 0 -46 16t-19 43q0 26 17 38.5t44 12.5q23 0 40 -17t17 -40q0 -53 -53 -53zM325 -5q-144 0 -214 82q-65 76 -65 220l-17 410l191 -17l-2 -107 q0 -67 7 -161q16 -216 16 -270l197 -2q0 27 3 82t3 83q0 56 -10 233q-5 89 -5 140h159q0 -88 3.5 -242t3.5 -199q0 -121 -73.5 -186.5t-196.5 -65.5z" />
<glyph unicode="&#xdf;" horiz-adv-x="683" d="M449 -4q-26 0 -76 4t-75 4l-5 99l162 14l-4 185l-199 1l-38 -406l-167 10l-2 793q55 0 165 3t165 3q98 0 162 -30q86 -40 86 -127q0 -72 -48 -116q-30 -27 -113 -66q96 -28 138 -60q61 -47 61 -132q0 -82 -66 -133q-60 -46 -146 -46zM198 606l-4 -197l205 12l11 181z" />
<glyph unicode="&#xe0;" horiz-adv-x="560" d="M376 526l-179 80q10 19 16.5 34.5t10.5 35.5q36 -28 86 -64q37 -26 88 -61zM371 13v14q0 12 -6 30l-5 -1q-37 -30 -65.5 -43.5t-69.5 -13.5q-85 0 -134 27q-63 35 -63 113q0 103 119 141q72 23 202 23l1 93q-33 3 -67.5 6t-65.5 3h-12.5t-17.5 -4q-3 -12 -6 -27t0 -20 l-135 -4l-1 4q0 86 85 118q54 20 157 20q149 0 199 -48q40 -38 40 -142q0 -22 -2 -80.5t-2 -70.5q0 -28 1.5 -44t11.5 -97zM210 208q-10 -17 -15 -28t-5 -27q0 -15 2 -24.5t8 -22.5h178l6 102h-174z" />
<glyph unicode="&#xe1;" horiz-adv-x="563" d="M226 530l-21 24q43 30 85.5 59.5t86.5 65.5q3 -19 9.5 -34.5t18.5 -35.5zM371 13v14q0 12 -6 30l-5 -1q-37 -30 -65.5 -43.5t-69.5 -13.5q-85 0 -134 27q-63 35 -63 113q0 103 119 141q72 23 202 23l1 93q-33 3 -67.5 6t-65.5 3h-12.5t-17.5 -4q-3 -12 -6 -27t0 -20 l-135 -4l-1 4q0 86 85 118q54 20 157 20q149 0 199 -48q40 -38 40 -142q0 -22 -2 -80.5t-2 -70.5q0 -28 1.5 -44t11.5 -97zM210 208q-10 -17 -15 -28t-5 -27q0 -15 2 -24.5t8 -22.5h178l6 102h-174z" />
<glyph unicode="&#xe2;" horiz-adv-x="565" d="M417 540q-54 11 -88 18q-13 2 -37 9l-120 -35l-15 20l134 106l134 -95zM370 14v14q0 12 -6 30l-5 -1q-37 -30 -65.5 -43.5t-69.5 -13.5q-85 0 -134 27q-63 35 -63 113q0 103 119 141q72 23 202 23l1 93q-33 3 -67.5 6t-65.5 3h-12.5t-17.5 -4q-3 -12 -6 -27t0 -20 l-135 -4l-1 4q0 86 85 118q54 20 157 20q149 0 199 -48q40 -38 40 -142q0 -22 -2 -80.5t-2 -70.5q0 -28 1.5 -44t11.5 -97zM209 209q-10 -17 -15 -28t-5 -27q0 -15 2 -24.5t8 -22.5h178l6 102h-174z" />
<glyph unicode="&#xe3;" horiz-adv-x="562" d="M342 540q-9 0 -61 22q-26 11 -45 11q-22 0 -38 -12q-10 -8 -27 -30l-26 41q12 30 29 47q22 23 49 23q19 0 42 -12q55 -28 61 -28q19 0 43.5 19t36.5 38l25 -37q-9 -31 -34.5 -56.5t-54.5 -25.5zM370 12v14q0 12 -6 30l-5 -1q-37 -30 -65.5 -43.5t-69.5 -13.5 q-85 0 -134 27q-63 35 -63 113q0 103 119 141q72 23 202 23l1 93q-33 3 -67.5 6t-65.5 3h-12.5t-17.5 -4q-3 -12 -6 -27t0 -20l-135 -4l-1 4q0 86 85 118q54 20 157 20q149 0 199 -48q40 -38 40 -142q0 -22 -2 -80.5t-2 -70.5q0 -28 1.5 -44t11.5 -97zM209 207 q-10 -17 -15 -28t-5 -27q0 -15 2 -24.5t8 -22.5h178l6 102h-174z" />
<glyph unicode="&#xe4;" horiz-adv-x="562" d="M217 538q-27 0 -44 15t-17 43q0 26 17 39t43 13q23 0 40 -16t17 -39q0 -55 -56 -55zM383 540q-27 0 -45.5 16.5t-18.5 42.5q0 25 17 37.5t43 12.5q23 0 41 -16t18 -40q0 -53 -55 -53zM371 13v14q0 12 -6 30l-5 -1q-37 -30 -65.5 -43.5t-69.5 -13.5q-85 0 -134 27 q-63 35 -63 113q0 103 119 141q72 23 202 23l1 93q-33 3 -67.5 6t-65.5 3h-12.5t-17.5 -4q-3 -12 -6 -27t0 -20l-135 -4l-1 4q0 86 85 118q54 20 157 20q149 0 199 -48q40 -38 40 -142q0 -22 -2 -80.5t-2 -70.5q0 -28 1.5 -44t11.5 -97zM210 208q-10 -17 -15 -28t-5 -27 q0 -15 2 -24.5t8 -22.5h178l6 102h-174z" />
<glyph unicode="&#xe5;" horiz-adv-x="560" d="M286 535q-29 0 -50 22t-21 50q0 30 22.5 54.5t51.5 24.5q33 0 54 -21t21 -54q0 -30 -24 -53t-54 -23zM370 13v14q0 12 -6 30l-5 -1q-37 -30 -65.5 -43.5t-69.5 -13.5q-85 0 -134 27q-63 35 -63 113q0 103 119 141q72 23 202 23l1 93q-33 3 -67.5 6t-65.5 3h-12.5 t-17.5 -4q-3 -12 -6 -27t0 -20l-135 -4l-1 4q0 86 85 118q54 20 157 20q149 0 199 -48q40 -38 40 -142q0 -22 -2 -80.5t-2 -70.5q0 -28 1.5 -44t11.5 -97zM287 641q-12 0 -21 -8t-9 -20q0 -17 7 -27.5t23 -10.5q11 0 19.5 7.5t8.5 18.5q0 15 -7 27.5t-21 12.5zM209 208 q-10 -17 -15 -28t-5 -27q0 -15 2 -24.5t8 -22.5h178l6 102h-174z" />
<glyph unicode="&#xe6;" horiz-adv-x="922" d="M885 208q-47 0 -157 5.5t-144 5.5q-12 0 -19 -9t-7 -21q0 -19 4.5 -46t9.5 -52l148 4l13 67l152 -3v-6q0 -88 -84 -129q-65 -32 -163 -32q-23 0 -53 6q-7 1 -52 12l-2 -3l-165 4l-7 45q-30 -24 -47 -34q-43 -26 -91 -26q-84 0 -132 27q-63 35 -63 112q0 103 119 141 q72 23 202 23l1 94q-44 5 -71.5 7.5t-60.5 2.5q-21 -3 -32 -4q-3 -15 -5 -30.5t0 -18.5l-137 -3q-13 23 -13 47q0 50 70 73.5t214 23.5q38 0 72.5 -8.5t75.5 -25.5q32 24 66 34t75 10q133 0 206 -62q79 -67 79 -198zM701 394h-172q-8 -16 -11 -26.5t-3 -24.5q0 -20 2.5 -32 t10.5 -26l183 14zM208 208q-9 -16 -13.5 -27.5t-4.5 -27.5q0 -26 8 -47h178l6 102h-174z" />
<glyph unicode="&#xe7;" horiz-adv-x="593" d="M269 -9l-3 -29q0 -6 7 -11q13 7 22 10.5t20 3.5q29 0 48.5 -17.5t19.5 -46.5q0 -30 -22 -52t-52 -22q-35 0 -55 14t-23 48l53 2l-2 -33l49 2v67l-58 2l-4 -13l-36 2l6 76q-95 9 -153 79.5t-58 167.5q0 114 79 189t194 75q109 0 168.5 -49t72.5 -156l-185 -6l7 87l-150 1 q0 -45 -1 -136t-1 -137l173 2l8 95q32 -3 75 -4.5t94 -1.5q0 -105 -73 -161q-67 -51 -172 -51q-24 0 -48 3z" />
<glyph unicode="&#xe8;" horiz-adv-x="584" d="M343 538l-179 79q8 15 16 33.5t12 36.5q33 -27 85 -63q59 -40 88 -60zM307 -7q-130 0 -207 71t-77 201q0 104 65 169t170 65q288 0 288 -291q-47 0 -157 5.5t-144 5.5q-11 0 -20 -9t-8 -20l16 -99l147 4l15 67l151 -3q0 -86 -80 -130q-65 -36 -159 -36zM356 391h-170 q-6 -11 -11 -25.5t-5 -27.5q0 -33 14 -58l182 15z" />
<glyph unicode="&#xe9;" horiz-adv-x="582" d="M206 534l-22 24q97 66 110 75q33 24 63 49q3 -19 9.5 -34.5t18.5 -35.5zM307 -7q-130 0 -207 71t-77 201q0 104 65 169t170 65q288 0 288 -291q-47 0 -157 5.5t-144 5.5q-11 0 -20 -9t-8 -20l16 -99l147 4l15 67l151 -3q0 -86 -80 -130q-65 -36 -159 -36zM356 391h-170 q-6 -11 -11 -25.5t-5 -27.5q0 -33 14 -58l182 15z" />
<glyph unicode="&#xea;" horiz-adv-x="580" d="M390 542q-37 8 -62 13t-64 14l-120 -36l-14 21l133 106l135 -95zM307 -6q-130 0 -207 71t-77 201q0 104 65 169t170 65q288 0 288 -291q-47 0 -157 5.5t-144 5.5q-11 0 -20 -9t-8 -20l16 -99l147 4l15 67l151 -3q0 -86 -80 -130q-65 -36 -159 -36zM356 392h-170 q-6 -11 -11 -25.5t-5 -27.5q0 -33 14 -58l182 15z" />
<glyph unicode="&#xeb;" d="M181 540q-26 0 -44 16t-18 43q0 25 17 37.5t43 12.5q24 0 40.5 -15.5t16.5 -38.5q0 -55 -55 -55zM346 542q-26 0 -44.5 16.5t-18.5 42.5q0 25 17 37.5t43 12.5q23 0 41 -16t18 -40q0 -53 -56 -53zM308 -7q-130 0 -207 71t-77 201q0 104 65 169t170 65q288 0 288 -291 q-47 0 -157 5.5t-144 5.5q-11 0 -20 -9t-8 -20l16 -99l147 4l15 67l151 -3q0 -86 -80 -130q-65 -36 -159 -36zM357 391h-170q-6 -11 -11 -25.5t-5 -27.5q0 -33 14 -58l182 15z" />
<glyph unicode="&#xec;" horiz-adv-x="255" d="M217 506l-179 78q9 17 16 35t11 36q39 -32 85 -64q60 -40 89 -60zM57 8l-13 451h176l-1 -452z" />
<glyph unicode="&#xed;" horiz-adv-x="250" d="M43 502l-22 25q44 29 88 59q49 33 85 64q4 -18 11.5 -35t16.5 -34zM47 8l-13 451h176l-1 -452z" />
<glyph unicode="&#xee;" horiz-adv-x="275" d="M258 520l-125 27l-120 -36l-15 22l135 105l134 -95zM59 8l-13 451h176l-1 -452z" />
<glyph unicode="&#xef;" horiz-adv-x="291" d="M70 509q-28 0 -45 16t-17 43q0 24 17.5 37.5t42.5 13.5q23 0 40 -16t17 -39q0 -55 -55 -55zM234 511q-26 0 -44.5 16.5t-18.5 42.5q0 24 17 37t42 13q23 0 41 -16t18 -40q0 -53 -55 -53zM77 8l-13 451h176l-1 -452z" />
<glyph unicode="&#xf1;" horiz-adv-x="543" d="M330 533q-11 0 -63 22q-26 11 -44 11q-23 0 -38 -12q-9 -7 -27 -31l-25 43q10 28 30.5 48.5t47.5 20.5q22 0 58 -20t43 -20q18 0 43.5 19t37.5 37l26 -37q-8 -29 -34 -55t-55 -26zM344 4q0 32 2 108t2 82q0 24 -4 58q-9 78 -9 96l-144 -5l1 -21q0 -73 -1 -147t-2 -147 l-167 -3q0 52 2 94q7 146 7 157q0 30 -4 91t-4 92l141 -6l2 -55q50 40 97 61q56 25 111 25q88 0 116 -47q21 -35 21 -129v-304h-167z" />
<glyph unicode="&#xf2;" horiz-adv-x="574" d="M356 536l-178 79q9 18 16 36t11 35q36 -29 85 -64q43 -30 87 -60zM289 -6q-117 0 -186 76.5t-69 196.5q0 105 67 169t172 64q112 0 193.5 -80.5t81.5 -192.5q0 -107 -77 -172q-72 -61 -182 -61zM354 390l-146 -13l-26 -239l192 -19z" />
<glyph unicode="&#xf3;" horiz-adv-x="574" d="M213 536l-22 26q93 61 174 124q2 -20 9 -37q4 -11 18 -34zM289 -6q-117 0 -186 76.5t-69 196.5q0 105 67 169t172 64q112 0 193.5 -80.5t81.5 -192.5q0 -107 -77 -172q-72 -61 -182 -61zM354 390l-146 -13l-26 -239l192 -19z" />
<glyph unicode="&#xf4;" d="M407 544l-127 27l-120 -36l-15 21l135 106l134 -95zM289 -6q-117 0 -186 76.5t-69 196.5q0 105 67 169t172 64q112 0 193.5 -80.5t81.5 -192.5q0 -107 -77 -172q-72 -61 -182 -61zM354 390l-146 -13l-26 -239l192 -19z" />
<glyph unicode="&#xf5;" d="M338 555q-14 0 -36 10q-50 23 -69 23q-21 0 -38 -13q-11 -8 -28 -30l-26 42q12 30 28 47q22 22 50 22q21 0 56 -20t47 -20q18 0 43 19.5t37 38.5l26 -37q-8 -30 -34 -56t-56 -26zM289 -7q-117 0 -186 76.5t-69 196.5q0 105 67 169t172 64q112 0 193.5 -80.5t81.5 -192.5 q0 -107 -77 -172q-72 -61 -182 -61zM354 389l-146 -13l-26 -239l192 -19z" />
<glyph unicode="&#xf6;" d="M211 551q-28 0 -45.5 15.5t-17.5 43.5q0 26 16.5 38t43.5 12q24 0 40.5 -15.5t16.5 -38.5q0 -55 -54 -55zM374 553q-26 0 -44.5 15.5t-18.5 42.5q0 24 17.5 37.5t42.5 13.5q23 0 40.5 -16.5t17.5 -39.5q0 -25 -15 -39t-40 -14zM290 -6q-117 0 -186 76.5t-69 196.5 q0 105 67 169t172 64q112 0 193.5 -80.5t81.5 -192.5q0 -107 -77 -172q-72 -61 -182 -61zM355 390l-146 -13l-26 -239l192 -19z" />
<glyph unicode="&#xf7;" horiz-adv-x="511" d="M256 302q-23 0 -37.5 14.5t-14.5 36.5q0 21 15.5 36.5t36.5 15.5t35.5 -15.5t14.5 -36.5q0 -20 -14.5 -35.5t-35.5 -15.5zM40 198v60h429v-60h-429zM255 50q-22 0 -37 15t-15 37q0 21 15 36t37 15t36 -14t14 -38q0 -20 -14.5 -35.5t-35.5 -15.5z" />
<glyph unicode="&#xf8;" horiz-adv-x="574" d="M286 -6q-40 0 -74 10l-21 -47l-54 24l21 45q-63 33 -94.5 99t-31.5 144q0 103 67 167t171 64q21 0 37 -2.5t40 -10.5l22 60l58 -22l-27 -59q63 -21 106 -97q40 -71 40 -142q0 -106 -78 -171q-74 -62 -182 -62zM349 349q-15 -34 -35 -82q-13 -31 -55 -139l107 -11z M201 372l-27 -236l30 -4q55 118 69 152q19 46 32 97z" />
<glyph unicode="&#xf9;" horiz-adv-x="553" d="M343 528l-179 80q10 19 16.5 34.5t10.5 35.5q36 -28 86 -64l88 -62zM391 40l1 14q0 17 -14 23q-33 -14 -63 -40q-39 -34 -118 -34q-101 0 -138 54q-28 41 -28 130q0 17 1 52.5t1 52.5q0 68 -1.5 97.5t-7.5 84.5l176 -3l-8 -347h161l-4 354h165l-2 -121q0 -50 7 -198 q4 -85 4 -119h-132z" />
<glyph unicode="&#xfa;" horiz-adv-x="553" d="M206 528l-23 25q74 50 88 60q43 30 86 64q3 -19 9 -33.5t19 -36.5zM391 40l1 14q0 17 -14 23q-33 -14 -63 -40q-39 -34 -118 -34q-101 0 -138 54q-28 41 -28 130q0 17 1 52.5t1 52.5q0 68 -1.5 97.5t-7.5 84.5l176 -3l-8 -347h161l-4 354h165l-2 -121q0 -50 7 -198 q4 -85 4 -119h-132z" />
<glyph unicode="&#xfb;" horiz-adv-x="553" d="M392 533l-126 27l-120 -36l-15 21l134 105l135 -94zM391 41l1 14q0 17 -14 23q-33 -14 -63 -40q-39 -34 -118 -34q-101 0 -138 54q-28 41 -28 130q0 17 1 52.5t1 52.5q0 68 -1.5 97.5t-7.5 84.5l176 -3l-8 -347h161l-4 354h165l-2 -121q0 -50 7 -198q4 -85 4 -119h-132z " />
<glyph unicode="&#xfc;" horiz-adv-x="556" d="M192 529q-27 0 -44.5 15.5t-17.5 43.5q0 26 16.5 38.5t43.5 12.5q23 0 40 -16t17 -40q0 -54 -55 -54zM358 531q-27 0 -45.5 15.5t-18.5 42.5q0 24 17.5 37.5t42.5 13.5q24 0 41 -16t17 -40q0 -25 -15 -39t-39 -14zM392 41l1 14q0 17 -14 23q-33 -14 -63 -40 q-39 -34 -118 -34q-101 0 -138 54q-28 41 -28 130q0 17 1 52.5t1 52.5q0 68 -1.5 97.5t-7.5 84.5l176 -3l-8 -347h161l-4 354h165l-2 -121q0 -50 7 -198q4 -85 4 -119h-132z" />
<glyph unicode="&#xff;" horiz-adv-x="500" d="M217 542q-26 0 -43.5 16.5t-17.5 42.5q0 25 17 37.5t43 12.5q24 0 40.5 -15.5t16.5 -38.5q0 -55 -56 -55zM383 543q-27 0 -45.5 16.5t-18.5 43.5q0 24 17.5 36.5t42.5 12.5q24 0 41 -16t17 -40q0 -25 -15 -39t-39 -14zM160 -213q-86 0 -118 43q-28 37 -28 126l121 -7v-75 h61q9 22 12.5 45.5t3.5 52.5q0 20 -43 134t-85 217q-32 77 -64 155l178 1q31 -109 63 -218q28 -89 37 -95q14 6 47 150q6 25 36 173q57 -17 115 -17l-189 -610q-12 -37 -61 -58q-40 -17 -86 -17z" />
<glyph unicode="&#x131;" horiz-adv-x="257" />
<glyph unicode="&#x2da;" horiz-adv-x="443" d="M344 739q-28 0 -50 22t-22 50q0 31 22.5 54.5t53.5 23.5q33 0 53.5 -20.5t20.5 -52.5t-22.5 -54.5t-55.5 -22.5zM345 845q-10 0 -19 -8t-9 -19q0 -18 6 -28.5t22 -10.5q30 0 30 25q0 17 -6.5 29t-23.5 12z" />
</font>
</defs>
</svg>
